<svg width="20" height="20" viewBox="0 0 20 20" fill="none" xmlns="http://www.w3.org/2000/svg">
<path d="M11.4994 5.101L11.2432 4.84438V5.20697V12.6457C11.2432 12.9556 11.1201 13.2528 10.901 13.4719C10.6819 13.691 10.3847 13.8141 10.0748 13.8141C9.76486 13.8141 9.46766 13.691 9.24854 13.4719C9.02941 13.2528 8.9063 12.9556 8.9063 12.6457V5.20697V4.84461L8.65019 5.10095L7.17229 6.58017C7.17227 6.58019 7.17226 6.5802 7.17224 6.58022C6.95282 6.79947 6.65529 6.92257 6.3451 6.92247C6.03489 6.92236 5.73742 6.79902 5.51815 6.57959C5.29887 6.36016 5.17575 6.06261 5.17586 5.7524C5.17597 5.44219 5.2993 5.14473 5.51873 4.92545L9.24864 1.19818L9.24898 1.19784C9.3572 1.089 9.48587 1.00263 9.62758 0.943688C9.7693 0.884749 9.92127 0.854407 10.0748 0.854407C10.2282 0.854407 10.3802 0.884749 10.5219 0.943688C10.6636 1.00263 10.7923 1.089 10.9005 1.19784L10.9009 1.19816L14.6307 4.92669C14.6307 4.92671 14.6307 4.92673 14.6308 4.92675C14.7393 5.03539 14.8254 5.16434 14.8841 5.30625C14.9429 5.44818 14.9731 5.60028 14.973 5.75388C14.9729 5.90749 14.9426 6.05957 14.8838 6.20146C14.825 6.34335 14.7388 6.47226 14.6301 6.58083C14.5215 6.68941 14.3925 6.77552 14.2506 6.83425C14.1086 6.89298 13.9565 6.92318 13.8029 6.92312C13.6493 6.92307 13.4972 6.89276 13.3554 6.83393C13.2135 6.7751 13.0846 6.6889 12.976 6.58025L11.4994 5.101ZM3.48249 11.1034H3.33249V11.2534V16.5272V16.6772H3.48249H16.667H16.817V16.5272V11.2534V11.1034H16.667H15.3486C15.0387 11.1034 14.7415 10.9803 14.5224 10.7612C14.3032 10.542 14.1801 10.2448 14.1801 9.93495C14.1801 9.62505 14.3032 9.32785 14.5224 9.10873C14.7415 8.8896 15.0387 8.76649 15.3486 8.76649H16.667C17.3266 8.76649 17.9591 9.02851 18.4255 9.49489C18.8919 9.96128 19.1539 10.5938 19.1539 11.2534V16.5272C19.1539 17.1868 18.8919 17.8193 18.4255 18.2857C17.9591 18.7521 17.3266 19.0141 16.667 19.0141H3.48249C2.82292 19.0141 2.19037 18.7521 1.72398 18.2857C1.25759 17.8193 0.995581 17.1868 0.995581 16.5272V11.2534C0.995581 10.5938 1.25759 9.96128 1.72398 9.49489C2.19036 9.02851 2.82292 8.76649 3.48249 8.76649H4.80094C5.11084 8.76649 5.40804 8.8896 5.62716 9.10873C5.84629 9.32785 5.9694 9.62505 5.9694 9.93495C5.9694 10.2448 5.84629 10.542 5.62716 10.7612C5.40804 10.9803 5.11084 11.1034 4.80094 11.1034H3.48249Z" fill="#181725" stroke="white" stroke-width="0.3"/>
</svg>
